# xmcd CD database file
#
# Track frame offsets:
#	150
#	11873
#	22948
#	34303
#	47889
#	61556
#	74028
#	87300
#	101283
#	114621
#	129242
#	139534
#	150590
#	162722
#	169439
#	183540
#	195371
#	208264
#	223082
#	235024
#	249986
#	263542
#	276138
#	291027
#	303932
#
# Disc length: 4228 seconds
#
# Revision: 0
# Processed by: cddbd v1.5.1PL0 Copyright (c) Steve Scherf et al.
# Submitted via: CDex 1.51
#
DISCID=65108219
DTITLE=Josh White - The Remaining Titles 1941 - 1947
DYEAR=1998
DGENRE=Blues
TTITLE0=The Riddle Song
TTITLE1=Whatcha Goin' to Do
TTITLE2=Evil Harted Man
TTITLE3=John Henry
TTITLE4=House of the Rising Sun
TTITLE5=Strange Fruit
TTITLE6=Baby, Baby
TTITLE7=Fare Thee Well
TTITLE8=Move Into Germany
TTITLE9=The Lass With the Delicate Air
TTITLE10=Prison Bound
TTITLE11=Citizen C.I.O.
TTITLE12=Little Man on the Fence
TTITLE13=I'M The Guy
TTITLE14=The Fuhrer
TTITLE15=Landlord
TTITLE16=Sometime
TTITLE17=Lass Withe the Delicate Air
TTITLE18=I Gave My Love A Cherry
TTITLE19=Strange Fruit
TTITLE20=Dip His Fingers In the Water
TTITLE21=Green Grass Growing All Around
TTITLE22=Josh and Bill Blues
TTITLE23=Jim Crow (People's Song)
TTITLE24=The Man Who Couldn't Walk Around
EXTD=YEAR: 1998
EXTT0=
EXTT1=
EXTT2=
EXTT3=
EXTT4=
EXTT5=
EXTT6=
EXTT7=
EXTT8=
EXTT9=
EXTT10=
EXTT11=
EXTT12=
EXTT13=
EXTT14=
EXTT15=
EXTT16=
EXTT17=
EXTT18=
EXTT19=
EXTT20=
EXTT21=
EXTT22=
EXTT23=
EXTT24=
PLAYORDER=
